<svg id="Layer_1" data-name="Layer 1" xmlns="http://www.w3.org/2000/svg" xmlns:xlink="http://www.w3.org/1999/xlink"
     viewBox="0 0 422.09 480.08">
    <defs>
        <style>.cls-1{fill:url(#linear-gradient);}.cls-2{fill:#fff;}</style>
        <linearGradient id="linear-gradient" x1="211.05" y1="480.08" x2="211.05" gradientUnits="userSpaceOnUse">
            <stop offset="0" stop-color="#344194"/>
            <stop offset="1" stop-color="#2581c4"/>
        </linearGradient>
    </defs>
    <path class="cls-1"
          d="M410.8,368.41,220.91,477.28a21.16,21.16,0,0,1-21.16-.07L10.52,367.2A21.17,21.17,0,0,1,0,348.85L.66,130A21.17,21.17,0,0,1,11.3,111.67L201.19,2.8a21.14,21.14,0,0,1,21.15.07l189.23,110a21.14,21.14,0,0,1,10.52,18.36l-.66,218.88A21.16,21.16,0,0,1,410.8,368.41Z"/>
    <path class="cls-2"
          d="M169.52,186,91.4,257.81l25,2.54L83,373.29c38.73-.61,59.43-.12,79.78.74,30.61,1.3,43.62,2.12,70.8,0,16.92-1.31,31-4.79,47.6-14C306.8,345.91,320.55,325,327,315a142,142,0,0,0,17.7-39.38A140.77,140.77,0,0,0,349,236.85,146.48,146.48,0,0,0,333.09,174,135,135,0,0,0,286.7,123.8c-19.08-12.12-32.45-16.42-48.21-18.42-54.43-.63-110.27-.42-165.4-.63l16,31.05L74.92,170.16l123.29-.63c43.22-1.92,67.24,8.24,81.91,35.83,15,28.23,4.28,57.59,3.33,60.06-13.88,36.18-50.42,43.93-52.9,44.41l-69-.58,15.25-50.17,23.81-.64Q185.08,222.25,169.52,186Z"/>
</svg>