<svg version="1.1" id="Layer_1" xmlns="http://www.w3.org/2000/svg" xmlns:xlink="http://www.w3.org/1999/xlink" x="0px" y="0px"
	 viewBox="0 0 12 12" style="enable-background:new 0 0 12 12;" xml:space="preserve" fill="#a0aec0">

	<path id="menu_FILL0_wght400_GRAD0_opsz48" d="M2.5,6.2c-0.2,0-0.3-0.2-0.3-0.3s0.2-0.3,0.3-0.3h7c0.2,0,0.3,0.2,0.3,0.3
		S9.7,6.2,9.5,6.2H2.5z"/>
	<path id="menu_FILL0_wght400_GRAD0_opsz48_00000154420819551791597520000008861430599089853107_" d="M2.5,8.5
		c-0.2,0-0.3-0.2-0.3-0.3s0.2-0.3,0.3-0.3h7c0.2,0,0.3,0.2,0.3,0.3S9.7,8.5,9.5,8.5H2.5z"/>
	<path id="menu_FILL0_wght400_GRAD0_opsz48_00000086682820668100159470000004888577519024707456_" d="M2.5,4.2
		C2.3,4.2,2.2,4,2.2,3.8s0.2-0.3,0.3-0.3h7c0.2,0,0.3,0.2,0.3,0.3S9.7,4.2,9.5,4.2H2.5z"/>

</svg>
